<svg xmlns="http://www.w3.org/2000/svg" width="502" height="745" viewBox="0 0 502 745">
  <g id="그룹_18563" data-name="그룹 18563" transform="translate(-1524 -179)">
    <rect id="사각형_23894" data-name="사각형 23894" width="2" height="700" transform="translate(1534 224)" fill="#999"/>
    <rect id="사각형_23895" data-name="사각형 23895" width="2" height="700" transform="translate(2015 224)" fill="#999" opacity="0.8"/>
    <g id="그룹_18557" data-name="그룹 18557">
      <text id="이력서_검토_의뢰_등록" data-name="이력서 검토 의뢰 등록" transform="translate(1565 308)" fill="#191919" font-size="30" font-family="Pretendard Variable" font-weight="500" letter-spacing="-0.025em"><tspan x="0" y="0">이력서 검토 의뢰 등록</tspan></text>
      <text id="이력서_직군_채용_포지션_등_검토에_필요한_정보와_선정할_답변_수_답변_당_보상금을_입력" data-name="이력서, 직군, 채용 포지션 등 검토에 필요한 정보와
선정할 답변 수, 답변 당 보상금을 입력" transform="translate(1565 344)" fill="#767676" font-size="20" font-family="Pretendard Variable" font-weight="500" letter-spacing="-0.025em"><tspan x="0" y="0">이력서, 직군, 채용 포지션 등 검토에 필요한 정보와</tspan><tspan x="0" y="28">선정할 답변 수, 답변 당 보상금을 입력</tspan></text>
    </g>
    <g id="그룹_18558" data-name="그룹 18558" transform="translate(-20 21)">
      <text id="의뢰_정보를_바탕으로_지원자의_직무_경험_업무_적합성_적정_연봉_등을_평가하여_답변을_입력" data-name="의뢰 정보를 바탕으로 지원자의 직무 경험, 
업무 적합성, 적정 연봉 등을 평가하여 답변을 입력" transform="translate(1996 480)" fill="#767676" font-size="20" font-family="Pretendard Variable" font-weight="500" letter-spacing="-0.025em"><tspan x="-317.133" y="0">의뢰 정보를 바탕으로 지원자의 직무 경험, </tspan><tspan x="-371.894" y="28">업무 적합성, 적정 연봉 등을 평가하여 답변을 입력</tspan></text>
      <text id="이력서_검토_후_평가_작성" data-name="이력서 검토 후 평가 작성" transform="translate(1717 444)" fill="#191919" font-size="30" font-family="Pretendard Variable" font-weight="500" letter-spacing="-0.025em"><tspan x="0" y="0">이력서 검토 후 평가 작성</tspan></text>
    </g>
    <g id="그룹_18559" data-name="그룹 18559" transform="translate(0 54)">
      <text id="답변의_유용성_성실성_등을_바탕으로_보상금_지급_답변을_선정" data-name="답변의 유용성, 성실성 등을 바탕으로
보상금 지급 답변을 선정" transform="translate(1565 650)" fill="#767676" font-size="20" font-family="Pretendard Variable" font-weight="500" letter-spacing="-0.025em"><tspan x="0" y="0">답변의 유용성, 성실성 등을 바탕으로</tspan><tspan x="0" y="28">보상금 지급 답변을 선정</tspan></text>
      <text id="여러_전문가의_평가_확인_후_우수_답변_선정" data-name="여러 전문가의 평가 확인 후
우수 답변 선정" transform="translate(1565 578)" fill="#191919" font-size="30" font-family="Pretendard Variable" font-weight="500" letter-spacing="-0.025em"><tspan x="0" y="0">여러 전문가의 평가 확인 후</tspan><tspan x="0" y="36">우수 답변 선정</tspan></text>
    </g>
    <g id="그룹_18560" data-name="그룹 18560" transform="translate(0 75)">
      <text id="우수_답변으로_선정된_경우_등록한_계좌로_보상금_수령" data-name="우수 답변으로 선정된 경우
등록한 계좌로 보상금 수령" transform="translate(1974 786)" fill="#767676" font-size="20" font-family="Pretendard Variable" font-weight="500" letter-spacing="-0.025em"><tspan x="-198.369" y="0">우수 답변으로 선정된 경우</tspan><tspan x="-198.369" y="28">등록한 계좌로 보상금 수령</tspan></text>
      <text id="답변_선정_보상금_수령" data-name="답변 선정 보상금 수령" transform="translate(1729 750)" fill="#191919" font-size="30" font-family="Pretendard Variable" font-weight="500" letter-spacing="-0.025em"><tspan x="0" y="0">답변 선정 보상금 수령</tspan></text>
    </g>
    <circle id="타원_58" data-name="타원 58" cx="10" cy="10" r="10" transform="translate(1525 287)" fill="#2aa090"/>
    <circle id="타원_59" data-name="타원 59" cx="10" cy="10" r="10" transform="translate(1525 610)" fill="#2aa090"/>
    <circle id="타원_60" data-name="타원 60" cx="10" cy="10" r="10" transform="translate(2006 444)" fill="#2aa090"/>
    <circle id="타원_61" data-name="타원 61" cx="10" cy="10" r="10" transform="translate(2006 804)" fill="#2aa090"/>
    <g id="그룹_18561" data-name="그룹 18561" transform="translate(60)">
      <text id="기업_회원" data-name="기업 회원" transform="translate(1493 207)" fill="#0f172a" font-size="30" font-family="Pretendard Variable" font-weight="600"><tspan x="0" y="0">기업 회원</tspan></text>
      <path id="패스_7700" data-name="패스 7700" d="M19,21V5a2,2,0,0,0-2-2H7A2,2,0,0,0,5,5V21m14,0h2m-2,0H14M5,21H3m2,0h5M9,7h1M9,11h1m4-4h1m-1,4h1M10,21V16a1,1,0,0,1,1-1h2a1,1,0,0,1,1,1v5m-4,0h4" transform="translate(1462 185)" fill="none" stroke="#000" stroke-linecap="round" stroke-linejoin="round" stroke-width="2"/>
    </g>
    <g id="그룹_18562" data-name="그룹 18562" transform="translate(-92)">
      <text id="전문가_회원" data-name="전문가 회원" transform="translate(1981 207)" fill="#0f172a" font-size="30" font-family="Pretendard Variable" font-weight="600"><tspan x="0" y="0">전문가 회원</tspan></text>
      <path id="패스_7701" data-name="패스 7701" d="M12,4.354a4,4,0,1,1,0,5.292M15,21H3V20a6,6,0,0,1,12,0Zm0,0h6V20a6,6,0,0,0-9-5.2M13,7A4,4,0,1,1,9,3,4,4,0,0,1,13,7Z" transform="translate(1950 185)" fill="none" stroke="#000" stroke-linecap="round" stroke-linejoin="round" stroke-width="2"/>
    </g>
  </g>
</svg>
