<svg xmlns="http://www.w3.org/2000/svg" width="835" height="999" viewBox="0 0 835 999">
  <g id="그룹_18565" data-name="그룹 18565" transform="translate(-187 -1273)">
    <text id="기업_회원" data-name="기업 회원" transform="translate(216 1301)" fill="#0f172a" font-size="30" font-family="Pretendard Variable" font-weight="600"><tspan x="0" y="0">기업 회원</tspan></text>
    <text id="지원자" transform="translate(928 1301)" fill="#0f172a" font-size="30" font-family="Pretendard Variable" font-weight="600"><tspan x="0" y="0">지원자</tspan></text>
    <text id="개인_회원" data-name="개인 회원" transform="translate(911 1766)" fill="#0f172a" font-size="30" font-family="Pretendard Variable" font-weight="600"><tspan x="0" y="0">개인 회원</tspan></text>
    <rect id="사각형_23896" data-name="사각형 23896" width="2" height="954" transform="translate(257 1318)" fill="#999"/>
    <rect id="사각형_23897" data-name="사각형 23897" width="2" height="300" transform="translate(952 1318)" fill="#999"/>
    <rect id="사각형_23898" data-name="사각형 23898" width="2" height="475" transform="translate(953 1797)" fill="#999"/>
    <text id="평판_조회_의뢰_등록" data-name="평판 조회 의뢰 등록" transform="translate(288 1402)" fill="#191919" font-size="30" font-family="Pretendard Variable" font-weight="500" letter-spacing="-0.025em"><tspan x="0" y="0">평판 조회 의뢰 등록</tspan></text>
    <text id="지원자의_경력_정보와_선정할_답변_수_답변_당_보상금을_입력" data-name="지원자의 경력 정보와 선정할 
답변 수, 답변 당 보상금을 입력" transform="translate(288 1438)" fill="#767676" font-size="20" font-family="Pretendard Variable" font-weight="500" letter-spacing="-0.025em"><tspan x="0" y="0">지원자의 경력 정보와 선정할 </tspan><tspan x="0" y="28">답변 수, 답변 당 보상금을 입력</tspan></text>
    <text id="답변의_유용성_성실성_등을_바탕으로_보상금_지급_답변을_선정" data-name="답변의 유용성, 성실성 등을 바탕으로
보상금 지급 답변을 선정" transform="translate(288 2073)" fill="#767676" font-size="20" font-family="Pretendard Variable" font-weight="500" letter-spacing="-0.025em"><tspan x="0" y="0">답변의 유용성, 성실성 등을 바탕으로</tspan><tspan x="0" y="28">보상금 지급 답변을 선정</tspan></text>
    <text id="지원자와_경력이_겹치는_개인_회원들에게_자동으로_의뢰가_발송" data-name="지원자와 경력이 겹치는 개인 회원들에게
자동으로 의뢰가 발송" transform="translate(288 1758)" fill="#767676" font-size="20" font-family="Pretendard Variable" font-weight="500" letter-spacing="-0.025em"><tspan x="0" y="0">지원자와 경력이 겹치는 개인 회원들에게</tspan><tspan x="0" y="28">자동으로 의뢰가 발송</tspan></text>
    <text id="우수_답변으로_선정된_경우_등록한_계좌로_보상금_수령" data-name="우수 답변으로 선정된 경우
등록한 계좌로 보상금 수령" transform="translate(910 2222)" fill="#767676" font-size="20" font-family="Pretendard Variable" font-weight="500" letter-spacing="-0.025em"><tspan x="-198.369" y="0">우수 답변으로 선정된 경우</tspan><tspan x="-198.369" y="28">등록한 계좌로 보상금 수령</tspan></text>
    <text id="지원자와의_관계_검증_후_익명_평판_작성" data-name="지원자와의 관계 검증 후
익명 평판 작성" transform="translate(911 1900)" fill="#767676" font-size="20" font-family="Pretendard Variable" font-weight="500" letter-spacing="-0.025em"><tspan x="-181.576" y="0">지원자와의 관계 검증 후</tspan><tspan x="-110.022" y="28">익명 평판 작성</tspan></text>
    <text id="등록된_경력_중_평판_조회에_동의하는_경력만_선택적으로_동의" data-name="등록된  경력 중 평판 조회에 
동의하는 경력만 선택적으로 동의" transform="translate(918 1575)" fill="#767676" font-size="20" font-family="Pretendard Variable" font-weight="500" letter-spacing="-0.025em"><tspan x="-211.517" y="0" xml:space="preserve">등록된  경력 중 평판 조회에 </tspan><tspan x="-248.747" y="28">동의하는 경력만 선택적으로 동의</tspan></text>
    <text id="평판_조회_동의" data-name="평판 조회 동의" transform="translate(753 1539)" fill="#191919" font-size="30" font-family="Pretendard Variable" font-weight="500" letter-spacing="-0.025em"><tspan x="0" y="0">평판 조회 동의</tspan></text>
    <text id="여러_평판_확인_후_우수_답변_선정" data-name="여러 평판 확인 후
우수 답변 선정" transform="translate(288 2001)" fill="#191919" font-size="30" font-family="Pretendard Variable" font-weight="500" letter-spacing="-0.025em"><tspan x="0" y="0">여러 평판 확인 후</tspan><tspan x="0" y="36">우수 답변 선정</tspan></text>
    <text id="개인_회원들에게_의뢰_자동_발송" data-name="개인 회원들에게
의뢰 자동 발송" transform="translate(288 1686)" fill="#191919" font-size="30" font-family="Pretendard Variable" font-weight="500" letter-spacing="-0.025em"><tspan x="0" y="0">개인 회원들에게</tspan><tspan x="0" y="36">의뢰 자동 발송</tspan></text>
    <text id="답변_선정_보상금_수령" data-name="답변 선정 보상금 수령" transform="translate(665 2186)" fill="#191919" font-size="30" font-family="Pretendard Variable" font-weight="500" letter-spacing="-0.025em"><tspan x="0" y="0">답변 선정 보상금 수령</tspan></text>
    <text id="의뢰_수신_및_답변" data-name="의뢰 수신 및 답변" transform="translate(714 1864)" fill="#191919" font-size="30" font-family="Pretendard Variable" font-weight="500" letter-spacing="-0.025em"><tspan x="0" y="0">의뢰 수신 및 답변</tspan></text>
    <circle id="타원_62" data-name="타원 62" cx="10" cy="10" r="10" transform="translate(248 1381)" fill="#2aa090"/>
    <circle id="타원_63" data-name="타원 63" cx="10" cy="10" r="10" transform="translate(248 1979)" fill="#2aa090"/>
    <circle id="타원_66" data-name="타원 66" cx="10" cy="10" r="10" transform="translate(248 1664)" fill="#2aa090"/>
    <circle id="타원_64" data-name="타원 64" cx="10" cy="10" r="10" transform="translate(943 1517)" fill="#2aa090"/>
    <circle id="타원_67" data-name="타원 67" cx="10" cy="10" r="10" transform="translate(942 2165)" fill="#2aa090"/>
    <circle id="타원_65" data-name="타원 65" cx="10" cy="10" r="10" transform="translate(943 1843)" fill="#2aa090"/>
    <path id="패스_7702" data-name="패스 7702" d="M19,21V5a2,2,0,0,0-2-2H7A2,2,0,0,0,5,5V21m14,0h2m-2,0H14M5,21H3m2,0h5M9,7h1M9,11h1m4-4h1m-1,4h1M10,21V16a1,1,0,0,1,1-1h2a1,1,0,0,1,1,1v5m-4,0h4" transform="translate(185 1279)" fill="none" stroke="#000" stroke-linecap="round" stroke-linejoin="round" stroke-width="2"/>
    <path id="패스_7705" data-name="패스 7705" d="M12,4.354a4,4,0,1,1,0,5.292M15,21H3V20a6,6,0,0,1,12,0Zm0,0h6V20a6,6,0,0,0-9-5.2M13,7A4,4,0,1,1,9,3,4,4,0,0,1,13,7Z" transform="translate(880 1744)" fill="none" stroke="#000" stroke-linecap="round" stroke-linejoin="round" stroke-width="2"/>
    <path id="패스_7704" data-name="패스 7704" d="M19.143,8.143A5.143,5.143,0,1,1,14,3,5.143,5.143,0,0,1,19.143,8.143Zm-5.143,9a9,9,0,0,0-9,9H23a9,9,0,0,0-9-9Z" transform="translate(895 1275.929)" fill="none" stroke="#000" stroke-linecap="round" stroke-linejoin="round" stroke-width="2"/>
  </g>
</svg>
