<svg xmlns="http://www.w3.org/2000/svg" width="848" height="685" viewBox="0 0 848 685">
  <g id="그룹_18557" data-name="그룹 18557" transform="translate(-206 -179)">
    <text id="기업_회원" data-name="기업 회원" transform="translate(235 207)" fill="#0f172a" font-size="30" font-family="Pretendard Variable" font-weight="600"><tspan x="0" y="0">기업 회원</tspan></text>
    <text id="전문가_회원" data-name="전문가 회원" transform="translate(917 207)" fill="#0f172a" font-size="30" font-family="Pretendard Variable" font-weight="600"><tspan x="0" y="0">전문가 회원</tspan></text>
    <rect id="사각형_23892" data-name="사각형 23892" width="2" height="640" transform="translate(276 224)" fill="#999"/>
    <rect id="사각형_23893" data-name="사각형 23893" width="2" height="640" transform="translate(971 224)" fill="#999"/>
    <text id="이력서_검토_의뢰_등록" data-name="이력서 검토 의뢰 등록" transform="translate(307 308)" fill="#191919" font-size="30" font-family="Pretendard Variable" font-weight="500" letter-spacing="-0.025em"><tspan x="0" y="0">이력서 검토 의뢰 등록</tspan></text>
    <text id="이력서_직군_채용_포지션_등_검토에_필요한_정보와_선정할_답변_수_답변_당_보상금을_입력" data-name="이력서, 직군, 채용 포지션 등 검토에 필요한 정보와
선정할 답변 수, 답변 당 보상금을 입력" transform="translate(307 344)" fill="#767676" font-size="20" font-family="Pretendard Variable" font-weight="500" letter-spacing="-0.025em"><tspan x="0" y="0">이력서, 직군, 채용 포지션 등 검토에 필요한 정보와</tspan><tspan x="0" y="28">선정할 답변 수, 답변 당 보상금을 입력</tspan></text>
    <text id="답변의_유용성_성실성_등을_바탕으로_보상금_지급_답변을_선정" data-name="답변의 유용성, 성실성 등을 바탕으로
보상금 지급 답변을 선정" transform="translate(307 650)" fill="#767676" font-size="20" font-family="Pretendard Variable" font-weight="500" letter-spacing="-0.025em"><tspan x="0" y="0">답변의 유용성, 성실성 등을 바탕으로</tspan><tspan x="0" y="28">보상금 지급 답변을 선정</tspan></text>
    <text id="우수_답변으로_선정된_경우_등록한_계좌로_보상금_수령" data-name="우수 답변으로 선정된 경우
등록한 계좌로 보상금 수령" transform="translate(930 786)" fill="#767676" font-size="20" font-family="Pretendard Variable" font-weight="500" letter-spacing="-0.025em"><tspan x="-198.369" y="0">우수 답변으로 선정된 경우</tspan><tspan x="-198.369" y="28">등록한 계좌로 보상금 수령</tspan></text>
    <text id="의뢰_정보를_바탕으로_지원자의_직무_경험_업무_적합성_적정_연봉_등을_평가하여_답변을_입력" data-name="의뢰 정보를 바탕으로 지원자의 직무 경험, 
업무 적합성, 적정 연봉 등을 평가하여 답변을 입력" transform="translate(932 480)" fill="#767676" font-size="20" font-family="Pretendard Variable" font-weight="500" letter-spacing="-0.025em"><tspan x="-317.133" y="0">의뢰 정보를 바탕으로 지원자의 직무 경험, </tspan><tspan x="-371.894" y="28">업무 적합성, 적정 연봉 등을 평가하여 답변을 입력</tspan></text>
    <text id="이력서_검토_후_평가_작성" data-name="이력서 검토 후 평가 작성" transform="translate(653 444)" fill="#191919" font-size="30" font-family="Pretendard Variable" font-weight="500" letter-spacing="-0.025em"><tspan x="0" y="0">이력서 검토 후 평가 작성</tspan></text>
    <text id="여러_전문가의_평가_확인_후_우수_답변_선정" data-name="여러 전문가의 평가 확인 후
우수 답변 선정" transform="translate(307 578)" fill="#191919" font-size="30" font-family="Pretendard Variable" font-weight="500" letter-spacing="-0.025em"><tspan x="0" y="0">여러 전문가의 평가 확인 후</tspan><tspan x="0" y="36">우수 답변 선정</tspan></text>
    <text id="답변_선정_보상금_수령" data-name="답변 선정 보상금 수령" transform="translate(685 750)" fill="#191919" font-size="30" font-family="Pretendard Variable" font-weight="500" letter-spacing="-0.025em"><tspan x="0" y="0">답변 선정 보상금 수령</tspan></text>
    <circle id="타원_54" data-name="타원 54" cx="10" cy="10" r="10" transform="translate(267 287)" fill="#2aa090"/>
    <circle id="타원_56" data-name="타원 56" cx="10" cy="10" r="10" transform="translate(267 556)" fill="#2aa090"/>
    <circle id="타원_55" data-name="타원 55" cx="10" cy="10" r="10" transform="translate(962 423)" fill="#2aa090"/>
    <circle id="타원_57" data-name="타원 57" cx="10" cy="10" r="10" transform="translate(962 729)" fill="#2aa090"/>
    <path id="패스_7698" data-name="패스 7698" d="M19,21V5a2,2,0,0,0-2-2H7A2,2,0,0,0,5,5V21m14,0h2m-2,0H14M5,21H3m2,0h5M9,7h1M9,11h1m4-4h1m-1,4h1M10,21V16a1,1,0,0,1,1-1h2a1,1,0,0,1,1,1v5m-4,0h4" transform="translate(204 185)" fill="none" stroke="#000" stroke-linecap="round" stroke-linejoin="round" stroke-width="2"/>
    <path id="패스_7699" data-name="패스 7699" d="M12,4.354a4,4,0,1,1,0,5.292M15,21H3V20a6,6,0,0,1,12,0Zm0,0h6V20a6,6,0,0,0-9-5.2M13,7A4,4,0,1,1,9,3,4,4,0,0,1,13,7Z" transform="translate(886 185)" fill="none" stroke="#000" stroke-linecap="round" stroke-linejoin="round" stroke-width="2"/>
  </g>
</svg>
