<?xml version="1.0" encoding="utf-8"?>
<!-- Generator: Adobe Illustrator 26.0.3, SVG Export Plug-In . SVG Version: 6.00 Build 0)  -->
<svg version="1.1" id="레이어_1" xmlns="http://www.w3.org/2000/svg" xmlns:xlink="http://www.w3.org/1999/xlink" x="0px"
	 y="0px" viewBox="0 0 624 109" style="enable-background:new 0 0 624 109;" xml:space="preserve">
<style type="text/css">
	.st0{fill:#2AA090;}
</style>
<g>
	<path class="st0" d="M11.4,69.2c0-20.6,13.3-32.5,28.6-32.5c8.2,0,13.8,3.7,18.1,7.5l-3.8,4.6c-3.8-3.6-8.3-6.2-14.1-6.2
		c-12.3,0-21.7,10.9-21.7,26.6c0,15.8,8.6,26.5,21.5,26.5c6.4,0,11.9-3.1,16.1-6.8l3.2,4.6c-5.3,4.6-11.9,8-19.7,8
		C23.6,101.5,11.4,89.7,11.4,69.2z"/>
	<path class="st0" d="M68.5,38.3h5.6l0.8,11.5h0.2c4.2-7.8,10.3-13.1,17.5-13.1c2.4,0,4.3,0.4,6.2,1.4l-1.4,6c-2.1-0.8-3.2-1-5.7-1
		c-5.4,0-12,4-16.6,15.5V100h-6.7V38.3z"/>
	<path class="st0" d="M99.2,69.2c0-20.6,13-32.5,27.9-32.5S155,48.6,155,69.2c0,20.5-13,32.3-27.9,32.3S99.2,89.7,99.2,69.2z
		 M148.1,69.2c0-15.8-8.9-26.6-21-26.6s-20.8,10.9-20.8,26.6c0,15.8,8.8,26.5,20.8,26.5C139.2,95.8,148.1,85,148.1,69.2z"/>
	<path class="st0" d="M158.7,38.3h7.2l10.8,38.9c1.4,5.9,2.8,11.2,3.9,16.8h0.6c1.5-5.6,2.9-11,4.4-16.8l11-38.9h7.4l11,38.9
		c1.5,5.9,2.9,11.2,4.5,16.8h0.5c1.4-5.6,2.8-10.9,4.3-16.8l10.5-38.9h6.6L224.1,100h-8.7l-10.4-37.2c-1.7-5.9-2.9-11.6-4.6-17.7
		h-0.6c-1.4,6.1-2.8,11.9-4.8,18L184.9,100h-8.1L158.7,38.3z"/>
	<path class="st0" d="M245.1,69.2c0-19.9,12.7-32.5,27.3-32.5c7.4,0,12.4,2.8,18.4,7.5l-0.5-11.1V8h6.7V100h-5.6l-0.8-7.8h-0.2
		c-5,5-11.8,9.3-19.8,9.3C255.2,101.5,245.1,90,245.1,69.2z M290.4,85.9V50.2c-6.2-5.6-11.5-7.6-17.2-7.6
		c-11.8,0-20.8,11.5-20.8,26.6c0,16,7.1,26.4,19.6,26.4C278.5,95.6,284.3,92.3,290.4,85.9z"/>
	<path class="st0" d="M308,67.7c0-21.7,15.5-34.2,33.1-34.2c8,0,14.1,3.1,18.9,7.2l-8.1,11c-3.2-2.8-6.2-4.3-10-4.3
		c-9.8,0-16.6,8-16.6,20.3c0,12.2,6.7,20,16.1,20c4.6,0,9-2.2,12.6-5.2l6.7,11.2c-6.1,5.4-14,7.9-21.2,7.9
		C321.7,101.6,308,89.1,308,67.7z"/>
	<path class="st0" d="M367.3,7.6h16.9v23.3l-0.7,12.2c5.2-4.9,11.6-9.5,20.4-9.5c14,0,20,9.7,20,26.1V100h-17V61.7
		c0-10-2.8-13.5-9.1-13.5c-5.3,0-8.7,2.5-13.5,7.3V100h-16.9V7.6z"/>
	<path class="st0" d="M430.3,67.7c0-21.1,14.7-34.2,30.2-34.2c17.8,0,27.1,13.1,27.1,31c0,3.1-0.3,6.2-0.8,7.8h-40
		c1.4,10.6,8.3,16.2,18,16.2c5.3,0,10-1.6,14.6-4.5l5.8,10.4c-6.4,4.4-14.6,7.2-22.7,7.2C444.5,101.6,430.3,89,430.3,67.7z
		 M473.1,61.1c0-8.8-3.9-14.4-12.3-14.4c-6.8,0-12.8,4.9-14.1,14.4H473.1z"/>
	<path class="st0" d="M493.1,67.7c0-21.7,15.5-34.2,33.1-34.2c8,0,14.1,3.1,18.9,7.2l-8.1,11c-3.2-2.8-6.2-4.3-10-4.3
		c-9.8,0-16.6,8-16.6,20.3c0,12.2,6.7,20,16.1,20c4.6,0,9-2.2,12.6-5.2l6.7,11.2c-6.1,5.4-14,7.9-21.2,7.9
		C506.7,101.6,493.1,89.1,493.1,67.7z"/>
	<path class="st0" d="M552.3,7.6h16.6v55.6h0.5l22.5-28h18.5l-22.5,26.5l24.5,38.3H594l-15.8-26.9l-9.4,10.6V100h-16.6L552.3,7.6
		L552.3,7.6z"/>
</g>
</svg>
