<?xml version="1.0" encoding="utf-8"?>
<!-- Generator: Adobe Illustrator 24.1.2, SVG Export Plug-In . SVG Version: 6.00 Build 0)  -->
<svg version="1.1" id="레이어_1" xmlns="http://www.w3.org/2000/svg" xmlns:xlink="http://www.w3.org/1999/xlink" x="0px"
	 y="0px" viewBox="0 0 841.89 595.28" style="enable-background:new 0 0 841.89 595.28;" xml:space="preserve">
<style type="text/css">
	.st0{fill:#2AA090;}
	.st1{fill:none;stroke:#2AA090;stroke-linecap:round;stroke-linejoin:round;stroke-miterlimit:10;}
</style>
<g>
	<path class="st0" d="M78.13,299.73c0-20.61,13.32-32.54,28.6-32.54c8.22,0,13.78,3.71,18.07,7.53l-3.82,4.63
		c-3.82-3.59-8.34-6.25-14.13-6.25c-12.28,0-21.66,10.89-21.66,26.63c0,15.75,8.57,26.52,21.54,26.52c6.37,0,11.93-3.13,16.1-6.83
		l3.24,4.63c-5.33,4.63-11.93,7.99-19.69,7.99C90.29,332.04,78.13,320.23,78.13,299.73z"/>
	<path class="st0" d="M135.23,268.81h5.56l0.81,11.47h0.23c4.17-7.76,10.31-13.09,17.49-13.09c2.43,0,4.29,0.35,6.25,1.39
		l-1.39,6.02c-2.08-0.81-3.24-1.04-5.67-1.04c-5.44,0-12.04,4.05-16.56,15.52v41.46h-6.72V268.81z"/>
	<path class="st0" d="M165.91,299.73c0-20.61,12.97-32.54,27.91-32.54c14.94,0,27.91,11.93,27.91,32.54
		c0,20.5-12.97,32.31-27.91,32.31C178.88,332.04,165.91,320.23,165.91,299.73z M214.78,299.73c0-15.75-8.92-26.63-20.96-26.63
		c-12.04,0-20.84,10.89-20.84,26.63c0,15.75,8.8,26.52,20.84,26.52C205.87,326.25,214.78,315.48,214.78,299.73z"/>
	<path class="st0" d="M225.44,268.81h7.18l10.77,38.91c1.39,5.91,2.78,11.23,3.94,16.79h0.58c1.51-5.56,2.9-11,4.4-16.79l11-38.91
		h7.41l11,38.91c1.51,5.91,2.9,11.23,4.52,16.79h0.46c1.39-5.56,2.78-10.88,4.28-16.79l10.54-38.91h6.6l-17.37,61.72h-8.69
		l-10.42-37.17c-1.74-5.91-2.9-11.58-4.63-17.72h-0.58c-1.39,6.14-2.78,11.93-4.75,17.95l-10.08,36.94h-8.11L225.44,268.81z"/>
	<path class="st0" d="M311.83,299.73c0-19.92,12.74-32.54,27.33-32.54c7.41,0,12.39,2.78,18.41,7.53l-0.46-11.12v-25.13h6.72v92.07
		h-5.56l-0.81-7.76h-0.23c-4.98,4.98-11.81,9.26-19.8,9.26C321.9,332.04,311.83,320.46,311.83,299.73z M357.11,316.4v-35.67
		c-6.25-5.56-11.46-7.64-17.25-7.64c-11.81,0-20.84,11.46-20.84,26.63c0,15.98,7.06,26.4,19.57,26.4
		C345.18,326.13,350.97,322.77,357.11,316.4z"/>
	<path class="st0" d="M374.71,298.22c0-21.66,15.52-34.16,33.12-34.16c7.99,0,14.13,3.13,18.88,7.18l-8.11,11
		c-3.24-2.78-6.25-4.28-9.96-4.28c-9.84,0-16.56,7.99-16.56,20.27c0,12.16,6.72,20.03,16.1,20.03c4.63,0,9.03-2.2,12.62-5.21
		l6.72,11.23c-6.14,5.44-14.01,7.87-21.19,7.87C388.37,332.15,374.71,319.65,374.71,298.22z"/>
	<path class="st0" d="M434,238.12h16.91v23.28l-0.69,12.16c5.21-4.86,11.58-9.5,20.38-9.5c14.01,0,20.03,9.73,20.03,26.06v40.42
		H473.6V292.2c0-9.96-2.78-13.55-9.15-13.55c-5.33,0-8.69,2.55-13.55,7.3v44.58H434V238.12z"/>
	<path class="st0" d="M497.03,298.22c0-21.08,14.71-34.16,30.23-34.16c17.83,0,27.1,13.09,27.1,31.04c0,3.13-0.35,6.25-0.81,7.76
		h-39.95c1.39,10.65,8.34,16.21,17.95,16.21c5.33,0,9.96-1.62,14.59-4.52l5.79,10.42c-6.37,4.4-14.59,7.18-22.7,7.18
		C511.16,332.15,497.03,319.53,497.03,298.22z M539.76,291.62c0-8.8-3.94-14.36-12.28-14.36c-6.83,0-12.85,4.86-14.13,14.36H539.76z
		"/>
	<path class="st0" d="M559.76,298.22c0-21.66,15.52-34.16,33.12-34.16c7.99,0,14.13,3.13,18.88,7.18l-8.11,11
		c-3.24-2.78-6.25-4.28-9.96-4.28c-9.84,0-16.56,7.99-16.56,20.27c0,12.16,6.72,20.03,16.1,20.03c4.63,0,9.03-2.2,12.62-5.21
		l6.72,11.23c-6.14,5.44-14.01,7.87-21.19,7.87C573.43,332.15,559.76,319.65,559.76,298.22z"/>
	<path class="st0" d="M619.05,238.12h16.56v55.59h0.46l22.47-28.02h18.53l-22.47,26.52l24.55,38.33h-18.41l-15.75-26.87l-9.38,10.65
		v16.21h-16.56V238.12z"/>
</g>
<g id="XMLID_1_">
	<g>
		<path class="st0" d="M764.6,256.63c0.16-0.1,0.35,0.07,0.27,0.23l-32.27,66.19c-2.38-13.31-14.01-23.41-27.99-23.41
			c-2.15,0-4.26,0.24-6.28,0.7L764.6,256.63z"/>
	</g>
	<g>
		<path class="st1" d="M698.32,300.35c2.01-0.46,4.12-0.7,6.28-0.7c13.99,0,25.62,10.1,27.99,23.41"/>
		<path class="st1" d="M698.32,300.35l-0.02,0.01v-0.01C698.31,300.35,698.31,300.35,698.32,300.35z"/>
		<path class="st1" d="M732.59,323.06l32.27-66.19c0.08-0.17-0.11-0.34-0.27-0.23l-66.27,43.72"/>
		<line class="st1" x1="732.59" y1="323.06" x2="732.59" y2="323.07"/>
		<line class="st1" x1="732.58" y1="323.08" x2="732.59" y2="323.07"/>
	</g>
</g>
</svg>
